<?xml version="1.0" standalone="no"?>
<!DOCTYPE svg PUBLIC "-//W3C//DTD SVG 20010904//EN"
 "http://www.w3.org/TR/2001/REC-SVG-20010904/DTD/svg10.dtd">
<svg version="1.0" xmlns="http://www.w3.org/2000/svg"
 width="1271.000000pt" height="1280.000000pt" viewBox="0 0 1271.000000 1280.000000"
 preserveAspectRatio="xMidYMid meet">
<metadata>
Created by potrace 1.15, written by Peter Selinger 2001-2017
</metadata>
<g transform="translate(0.000000,1280.000000) scale(0.100000,-0.100000)"
fill="#E4D00A" stroke="none">
<path d="M6120 12790 c-74 -4 -205 -15 -290 -23 -85 -9 -195 -19 -245 -22
-194 -14 -482 -68 -870 -166 -548 -138 -1233 -440 -1734 -765 -150 -98 -451
-313 -567 -406 -272 -217 -661 -596 -880 -858 -311 -372 -643 -863 -810 -1200
-254 -512 -408 -909 -515 -1330 -210 -826 -259 -1614 -153 -2470 44 -355 166
-890 283 -1250 103 -312 289 -733 455 -1030 109 -193 365 -585 484 -740 310
-403 811 -892 1273 -1242 431 -327 1013 -652 1504 -841 456 -175 642 -231
1020 -307 302 -60 466 -86 645 -100 74 -6 182 -15 240 -20 315 -29 709 -21
1015 20 77 11 167 22 200 25 316 34 732 123 1083 231 394 122 872 335 1232
549 205 122 643 420 790 539 317 255 718 654 966 961 230 285 540 756 713
1084 463 879 692 1724 741 2731 16 335 12 480 -20 818 -44 459 -77 657 -171
1022 -194 753 -552 1504 -1017 2130 -343 462 -683 815 -1212 1260 -332 279
-619 468 -1025 676 -360 185 -611 292 -988 420 -445 150 -1018 263 -1492 293
-247 16 -506 20 -655 11z m810 -1254 c656 -91 1143 -241 1695 -521 237 -120
346 -185 600 -356 416 -280 689 -523 1032 -919 268 -309 554 -741 721 -1090
335 -703 481 -1302 518 -2135 17 -390 -54 -1021 -161 -1430 -172 -660 -445
-1215 -893 -1814 -718 -962 -1774 -1656 -2907 -1911 -265 -60 -331 -72 -550
-102 -146 -21 -199 -23 -615 -23 -492 0 -558 5 -935 70 -427 74 -826 205
-1315 432 -302 141 -739 421 -1024 656 -142 117 -568 541 -681 677 -593 717
-983 1563 -1135 2464 -54 322 -64 447 -64 846 -1 391 4 469 55 800 56 369 110
587 231 938 126 365 349 809 578 1152 295 439 693 876 1082 1187 181 145 466
341 630 434 285 161 795 384 1058 462 142 43 521 131 653 152 197 32 378 47
622 53 311 9 654 -1 805 -22z"/>
</g>
</svg>
